# xmcd
#
# Track frame offsets:
#	150
#	19350
#	39120
#	62097
#	82096
#	101793
#	119937
#	143733
#	165552
#	180702
#	199035
#
# Disc length: 2717 seconds
#
# Revision: 1
# Processed by: cddbd v1.5.1PL0 Copyright (c) Steve Scherf et al.
# Submitted via: EasyCDDAExtractor 7.1.0.1
#
DISCID=9b0a9b0b
DTITLE=Mine Cayiroglu - Zumrut Gibi
DYEAR=2004
DGENRE=Other
TTITLE0=Zumrut Gibi
TTITLE1=Yaz Zamani
TTITLE2=Gozler
TTITLE3=Yeni Bir O
TTITLE4=Olum Yalan
TTITLE5=Kaliyorsun Oole
TTITLE6=Korkma
TTITLE7=Gel Ogret Ve Git
TTITLE8=Istanbulamaz
TTITLE9=Tekrar
TTITLE10=Zumrut (Mix)
EXTD=
EXTT0=
EXTT1=
EXTT2=
EXTT3=
EXTT4=
EXTT5=
EXTT6=
EXTT7=
EXTT8=
EXTT9=
EXTT10=
PLAYORDER=
